<svg id="black" xmlns="http://www.w3.org/2000/svg" width="42.148" height="42.148" viewBox="0 0 42.148 42.148">
  <g id="github">
    <path id="Path_9" data-name="Path 9" d="M16.39,41.608c0-.513-.018-1.872-.029-3.676-5.862,1.305-7.1-2.9-7.1-2.9a5.687,5.687,0,0,0-2.34-3.161c-1.913-1.341.145-1.313.145-1.313A4.438,4.438,0,0,1,10.3,32.788c1.88,3.3,4.932,2.349,6.134,1.8A4.664,4.664,0,0,1,17.767,31.7c-4.679-.545-9.6-2.4-9.6-10.68a8.472,8.472,0,0,1,2.17-5.8A7.953,7.953,0,0,1,10.544,9.5s1.77-.581,5.794,2.215a19.479,19.479,0,0,1,10.553,0c4.022-2.8,5.789-2.215,5.789-2.215a7.939,7.939,0,0,1,.21,5.719,8.457,8.457,0,0,1,2.166,5.8c0,8.3-4.928,10.128-9.623,10.662a5.222,5.222,0,0,1,1.431,4c0,2.889-.027,5.22-.027,5.928,0,.578.38,1.249,1.45,1.039a21.573,21.573,0,0,0,14.4-20.5C42.686,10.213,33.25.538,21.612.538S.538,10.213.538,22.147a21.573,21.573,0,0,0,14.413,20.5C16,42.847,16.39,42.18,16.39,41.608Z" transform="translate(-0.538 -0.538)" fill-rule="evenodd"/>
  </g>
</svg>
