<svg id="black" xmlns="http://www.w3.org/2000/svg" width="52.986" height="52.986" viewBox="0 0 52.986 52.986">
  <g id="github">
    <path id="Path_9" data-name="Path 9" d="M20.467,52.169c0-.645-.023-2.353-.036-4.621-7.369,1.641-8.924-3.642-8.924-3.642-1.205-3.138-2.942-3.974-2.942-3.974-2.405-1.686.182-1.651.182-1.651a5.579,5.579,0,0,1,4.058,2.8c2.363,4.151,6.2,2.953,7.711,2.258A5.863,5.863,0,0,1,22.2,39.707c-5.883-.685-12.068-3.017-12.068-13.426a10.65,10.65,0,0,1,2.727-7.289,10,10,0,0,1,.26-7.189s2.225-.73,7.285,2.785a24.488,24.488,0,0,1,13.267,0c5.056-3.515,7.278-2.785,7.278-2.785a9.98,9.98,0,0,1,.263,7.189,10.632,10.632,0,0,1,2.723,7.289c0,10.436-6.195,12.732-12.1,13.4a6.565,6.565,0,0,1,1.8,5.031c0,3.632-.034,6.562-.034,7.452,0,.727.478,1.571,1.823,1.306A27.121,27.121,0,0,0,53.524,27.7c0-15-11.863-27.165-26.494-27.165S.538,12.7.538,27.7a27.12,27.12,0,0,0,18.12,25.774C19.982,53.726,20.467,52.888,20.467,52.169Z" transform="translate(-0.538 -0.538)" fill-rule="evenodd"/>
  </g>
</svg>
