<svg xmlns="http://www.w3.org/2000/svg" width="65.13" height="53.127" viewBox="0 0 65.13 53.127">
  <g id="comp_x5F_147-gmail" transform="translate(-26.001 -83.035)">
    <g id="Group_12" data-name="Group 12" transform="translate(26.001 83.035)">
      <path id="Path_30" data-name="Path 30" d="M143.7,83.035h-29.6l14.8,22.654Z" transform="translate(-96.34 -83.035)"/>
      <path id="Path_31" data-name="Path 31" d="M102.5,197.939v46.783h34.279V197.934l-17.139,23.98Z" transform="translate(-87.073 -191.595)"/>
      <path id="Path_32" data-name="Path 32" d="M85.024,83.035H82.989L58.566,104.011,34.142,83.035H32.107A6.392,6.392,0,0,0,26,89.676V129.52a6.393,6.393,0,0,0,6.106,6.641h2.035V94.749l24.424,20.431L82.989,94.744v41.417h2.035a6.393,6.393,0,0,0,6.106-6.641V89.676A6.392,6.392,0,0,0,85.024,83.035Z" transform="translate(-26.001 -83.035)"/>
    </g>
  </g>
</svg>
