<svg xmlns="http://www.w3.org/2000/svg" width="42.148" height="42.148" viewBox="0 0 42.148 42.148">
  <path id="iconfinder_LinkedIn_alt_367593" d="M46.534,68.987h9.033V97.426H46.534Zm4.577-13.709a4.915,4.915,0,1,0-.118,9.825h.058a4.916,4.916,0,1,0,.061-9.825ZM77.745,68.319A8.915,8.915,0,0,0,69.6,73.013V68.987H60.569c.12,2.668,0,28.439,0,28.439H69.6V81.543a6.788,6.788,0,0,1,.3-2.307,4.976,4.976,0,0,1,4.634-3.457c3.272,0,4.578,2.609,4.578,6.43V97.426h9.034V81.118C88.148,72.383,83.692,68.319,77.745,68.319Z" transform="translate(-46 -55.278)"/>
</svg>
