<svg xmlns="http://www.w3.org/2000/svg" width="50.577" height="42.148" viewBox="0 0 50.577 42.148">
  <path id="iconfinder_BW_Twitter_glyph_svg_5305170" d="M15.906,90.135c19.086,0,29.525-16.217,29.525-30.28,0-.461,0-.919-.03-1.376a21.422,21.422,0,0,0,5.177-5.509,20.314,20.314,0,0,1-5.96,1.674,10.638,10.638,0,0,0,4.562-5.886,20.487,20.487,0,0,1-6.589,2.583,10.27,10.27,0,0,0-7.566-3.355A10.572,10.572,0,0,0,24.637,58.639a10.919,10.919,0,0,0,.269,2.408A29.234,29.234,0,0,1,3.52,49.929,10.861,10.861,0,0,0,6.733,64.135,10.1,10.1,0,0,1,2.023,62.8v.135A10.614,10.614,0,0,0,10.348,73.37a10.112,10.112,0,0,1-4.685.183,10.445,10.445,0,0,0,9.695,7.391A20.5,20.5,0,0,1,2.47,85.508,20.591,20.591,0,0,1,0,85.354a28.849,28.849,0,0,0,15.906,4.772" transform="translate(0 -47.987)"/>
</svg>
