<svg id="_x31_87-js" xmlns="http://www.w3.org/2000/svg" width="54" height="55" viewBox="0 0 54 55">
  <g id="Group_5" data-name="Group 5" transform="translate(0)">
    <rect id="Rectangle_20" data-name="Rectangle 20" width="54" height="55" fill="#f0db4f"/>
    <path id="Path_16" data-name="Path 16" d="M162.238,252.419c0,4.615-3.123,6.721-7.674,6.721-4.111,0-6.49-1.842-7.711-4.075l4.185-2.191c.805,1.238,1.537,2.286,3.306,2.286,1.684,0,2.757-.571,2.757-2.8V237.21h5.136v15.209Z" transform="translate(-132.493 -207.966)" fill="#323330"/>
    <path id="Path_17" data-name="Path 17" d="M309.2,256.931c-4.77,0-7.857-1.969-9.358-4.551l4.185-2.1a5.736,5.736,0,0,0,5.063,2.71c2.123,0,3.489-.921,3.489-2.2,0-1.524-1.391-2.064-3.745-2.964l-1.281-.476c-3.709-1.365-6.161-3.091-6.161-6.721,0-3.345,2.94-5.885,7.515-5.885,3.27,0,5.612.984,7.3,3.567l-4,2.223a3.551,3.551,0,0,0-3.306-1.9c-1.5,0-2.452.826-2.452,1.9,0,1.334.952,1.874,3.16,2.709l1.281.476c4.368,1.619,6.82,3.281,6.82,7.007,0,4-3.636,6.2-8.5,6.2Z" transform="translate(-267.306 -205.757)" fill="#323330"/>
  </g>
</svg>
