<svg xmlns="http://www.w3.org/2000/svg" width="761.462" height="720" viewBox="0 0 761.462 720">
  <g id="iconfinder_66_5027860" transform="translate(-1.13 -2.43)">
    <path id="Path_21" data-name="Path 21" d="M459.619,34.4A335.417,335.417,0,0,0,356.284,17.97C171.3,17.97,21.4,167.87,21.4,352.854a332.043,332.043,0,0,0,29.661,137.3H459.619V34.4Z" transform="translate(302.973 232.274)" fill="#febecc"/>
    <g id="Group_11" data-name="Group 11" transform="translate(1.13 2.43)">
      <g id="Group_9" data-name="Group 9" transform="translate(11.96 11.801)">
        <path id="Path_22" data-name="Path 22" d="M575.492,3.17H37.6A31.647,31.647,0,0,0,6.03,34.745V409.177H606.907V34.745A31.613,31.613,0,0,0,575.492,3.17Z" transform="translate(60.149 -3.17)" fill="#9beaf9"/>
        <path id="Path_23" data-name="Path 23" d="M735.435,129.265H1.88L68.219,28.64H668.937Z" transform="translate(-1.88 377.526)" fill="#ff9d9c"/>
        <rect id="Rectangle_21" data-name="Rectangle 21" width="733.555" height="63.787" transform="translate(0 506.791)" fill="#cdf6fc"/>
        <rect id="Rectangle_22" data-name="Rectangle 22" width="49.754" height="72.718" transform="translate(175.096 293.581)" fill="#fff"/>
        <rect id="Rectangle_23" data-name="Rectangle 23" width="49.754" height="120.08" transform="translate(276.837 246.219)" fill="#e9f4bc"/>
        <rect id="Rectangle_24" data-name="Rectangle 24" width="49.754" height="182.91" transform="translate(378.578 183.389)" fill="#fff"/>
        <rect id="Rectangle_25" data-name="Rectangle 25" width="49.754" height="254.193" transform="translate(492.12 112.106)" fill="#e9f4bc"/>
      </g>
      <g id="Group_10" data-name="Group 10">
        <circle id="Ellipse_15" data-name="Ellipse 15" cx="11.96" cy="11.96" r="11.96" transform="translate(66.339 257.382)" fill="#505050"/>
        <path id="Path_24" data-name="Path 24" d="M758.446,520.7c0-.319-.159-.638-.159-.957a10.531,10.531,0,0,0-1.435-4.465c-.159-.159-.159-.478-.319-.8l-64.425-97.754V102.1a1.734,1.734,0,0,0,.159-.8c0-.159,0-.159-.159-.319V45.805A43.421,43.421,0,0,0,648.731,2.43H111A43.455,43.455,0,0,0,67.469,45.805V239.879a11.96,11.96,0,1,0,23.92,0V45.805A19.807,19.807,0,0,1,111,26.191H648.731a19.776,19.776,0,0,1,19.455,19.615v55.5c0,.319.159.478.159.8l-.159,306.339H91.389V303.666a11.961,11.961,0,0,0-23.92-.159V416.729L3.044,514.483c-.159.159-.159.478-.319.8a11.3,11.3,0,0,0-1.435,4.465c0,.319-.159.638-.159.957v64.106a12.047,12.047,0,0,0,11.96,11.96H746.645a12.047,12.047,0,0,0,11.96-11.96V521.021C758.605,520.862,758.446,520.862,758.446,520.7ZM85.808,432.357h587.96l50.552,76.7H35.256ZM734.685,572.849H25.05V532.982H734.685Z" transform="translate(-1.13 -2.43)" fill="#505050"/>
        <path id="Path_25" data-name="Path 25" d="M12.11,32.79v72.718a12.047,12.047,0,0,0,11.96,11.96H73.824a12.047,12.047,0,0,0,11.96-11.96V32.79a12.047,12.047,0,0,0-11.96-11.96H24.07A12.047,12.047,0,0,0,12.11,32.79ZM36.03,44.75H61.864v48.8H36.03Z" transform="translate(162.986 272.592)" fill="#505050"/>
        <path id="Path_26" data-name="Path 26" d="M30.45,17.86A12.047,12.047,0,0,0,18.49,29.82V149.9a12.047,12.047,0,0,0,11.96,11.96H80.2a12.047,12.047,0,0,0,11.96-11.96V29.82A12.047,12.047,0,0,0,80.2,17.86ZM68.244,137.94H42.41V41.78H68.244Z" transform="translate(258.347 228.2)" fill="#505050"/>
        <path id="Path_27" data-name="Path 27" d="M36.83,13.92A12.047,12.047,0,0,0,24.87,25.88V208.79a12.047,12.047,0,0,0,11.96,11.96H86.584a12.047,12.047,0,0,0,11.96-11.96V25.88a12.047,12.047,0,0,0-11.96-11.96ZM74.624,196.83H48.79V37.84H74.624Z" transform="translate(353.708 169.309)" fill="#505050"/>
        <path id="Path_28" data-name="Path 28" d="M93.7,287.563a12.047,12.047,0,0,0,11.96-11.96V21.41A12.047,12.047,0,0,0,93.7,9.45H43.95A12.047,12.047,0,0,0,31.99,21.41V275.6a12.047,12.047,0,0,0,11.96,11.96ZM55.91,33.37H81.744V263.643H55.91Z" transform="translate(460.13 102.497)" fill="#505050"/>
        <path id="Path_29" data-name="Path 29" d="M17.106,186.092a12.237,12.237,0,0,0,9.728,4.944,11.659,11.659,0,0,0,7.017-2.392L219.95,52.458l-3.03,19.3a12.149,12.149,0,0,0,10.047,13.714,7.764,7.764,0,0,0,1.914.159,11.964,11.964,0,0,0,11.8-10.206l7.336-47.841A12.149,12.149,0,0,0,237.97,13.866L190.129,6.531a12.238,12.238,0,0,0-13.714,10.047,12.149,12.149,0,0,0,10.047,13.714l19.3,3.03L19.658,169.508A11.625,11.625,0,0,0,17.106,186.092Z" transform="translate(202.003 56.938)" fill="#505050"/>
      </g>
    </g>
  </g>
</svg>
