<svg xmlns="http://www.w3.org/2000/svg" width="52.986" height="52.986" viewBox="0 0 52.986 52.986">
  <path id="iconfinder_LinkedIn_alt_367593" d="M46.672,72.512H58.027v35.752H46.672Zm5.754-17.234a6.179,6.179,0,1,0-.149,12.352h.072a6.18,6.18,0,1,0,.076-12.352ZM85.908,71.672a11.207,11.207,0,0,0-10.235,5.9V72.512H64.315c.15,3.354,0,35.752,0,35.752H75.674V88.3a8.533,8.533,0,0,1,.373-2.9,6.255,6.255,0,0,1,5.826-4.345c4.113,0,5.756,3.28,5.756,8.084v19.129H98.986v-20.5C98.986,76.782,93.384,71.672,85.908,71.672Z" transform="translate(-46 -55.278)"/>
</svg>
