<svg id="iconfinder_React.js_logo_1174949" xmlns="http://www.w3.org/2000/svg" width="57.909" height="54.64" viewBox="0 0 57.909 54.64">
  <circle id="Ellipse_14" data-name="Ellipse 14" cx="5.175" cy="5.175" r="5.175" transform="translate(23.791 22.084)" fill="#00d8ff"/>
  <g id="Group_6" data-name="Group 6" transform="translate(0 15.511)">
    <path id="Path_18" data-name="Path 18" d="M47.465,209.2c-7.267,0-13.617-.856-18.369-2.484a23.337,23.337,0,0,1-7.566-4.051c-1.979-1.69-3.031-3.536-3.031-5.319,0-3.422,3.752-6.772,10.05-8.958a59.577,59.577,0,0,1,18.9-2.793,59.043,59.043,0,0,1,18.657,2.742,23.717,23.717,0,0,1,7.319,3.855c1.948,1.629,2.979,3.412,2.979,5.154,0,3.556-4.2,7.154-10.957,9.39A59.467,59.467,0,0,1,47.465,209.2Zm0-21.131a57.861,57.861,0,0,0-18.09,2.649c-5.793,2.02-8.391,4.783-8.391,6.628,0,1.917,2.793,4.937,8.916,7.03,4.494,1.536,10.576,2.35,17.565,2.35a56.764,56.764,0,0,0,17.214-2.34c6.36-2.113,9.267-5.133,9.267-7.04,0-.979-.742-2.134-2.092-3.257a21.215,21.215,0,0,0-6.535-3.422A57.053,57.053,0,0,0,47.465,188.074Z" transform="translate(-18.5 -185.6)" fill="#00d8ff"/>
  </g>
  <g id="Group_7" data-name="Group 7" transform="translate(11.2 0)">
    <path id="Path_19" data-name="Path 19" d="M133.183,104.822a5.191,5.191,0,0,1-2.763-.721c-2.958-1.815-3.989-7.039-2.742-13.981a65.315,65.315,0,0,1,7.03-18.845A62.434,62.434,0,0,1,146.4,55.589a23.372,23.372,0,0,1,7-4.678c2.381-.929,4.443-.929,5.948-.011,3.082,1.88,4.1,7.652,2.659,15.041a65.545,65.545,0,0,1-6.855,17.839c-3.628,6.668-7.545,12.046-11.328,15.555a23.178,23.178,0,0,1-7.288,4.8A9.544,9.544,0,0,1,133.183,104.822Zm2.587-32.891,1.072.656A63.293,63.293,0,0,0,130.1,90.612c-1.144,6.395-.041,10.242,1.546,11.215a2.911,2.911,0,0,0,1.536.372c2.051,0,5.278-1.377,9.009-4.831,3.577-3.312,7.319-8.471,10.813-14.888a62.659,62.659,0,0,0,6.576-17.052c1.35-6.963.186-11.226-1.474-12.243-.845-.514-2.216-.448-3.865.2a20.918,20.918,0,0,0-6.226,4.2A59.832,59.832,0,0,0,136.843,72.6Z" transform="translate(-127.159 -50.212)" fill="#00d8ff"/>
  </g>
  <g id="Group_8" data-name="Group 8" transform="translate(11.213 0.05)">
    <path id="Path_20" data-name="Path 20" d="M156.776,105.287c-2.8,0-6.36-1.793-10.071-5.181a62.516,62.516,0,0,1-11.885-15.872h0a65.015,65.015,0,0,1-6.978-18.583,26.565,26.565,0,0,1-.33-8.767c.433-2.656,1.453-4.547,2.969-5.476,3.072-1.891,8.3.055,13.617,5.072A62.75,62.75,0,0,1,155.24,71.684c3.639,6.668,6.082,12.953,7.051,18.178a26.471,26.471,0,0,1,.289,9.095c-.474,2.722-1.546,4.657-3.092,5.608A5.059,5.059,0,0,1,156.776,105.287ZM136.965,82.921a60.657,60.657,0,0,0,11.359,15.194c4.649,4.241,8.339,5.159,9.937,4.176,1.66-1.017,2.876-5.181,1.618-11.915-.928-4.941-3.268-10.953-6.772-17.37a60.16,60.16,0,0,0-10.648-14.56c-5.01-4.722-9.071-5.783-10.73-4.766-.845.514-1.474,1.815-1.773,3.651a23.683,23.683,0,0,0,.32,7.816,62.373,62.373,0,0,0,6.69,17.774Z" transform="translate(-127.284 -50.696)" fill="#00d8ff"/>
  </g>
</svg>
