<svg xmlns="http://www.w3.org/2000/svg" width="63.583" height="52.986" viewBox="0 0 63.583 52.986">
  <path id="iconfinder_BW_Twitter_glyph_svg_5305170" d="M20,100.973c23.994,0,37.117-20.387,37.117-38.067,0-.579,0-1.155-.038-1.729a26.93,26.93,0,0,0,6.508-6.925,25.537,25.537,0,0,1-7.493,2.1,13.373,13.373,0,0,0,5.735-7.4A25.755,25.755,0,0,1,53.542,52.2a12.911,12.911,0,0,0-9.512-4.217A13.291,13.291,0,0,0,30.973,61.378a13.727,13.727,0,0,0,.338,3.028A36.751,36.751,0,0,1,4.425,50.428,13.654,13.654,0,0,0,8.464,68.287a12.7,12.7,0,0,1-5.921-1.675v.17A13.344,13.344,0,0,0,13.009,79.9a12.712,12.712,0,0,1-5.89.23,13.131,13.131,0,0,0,12.188,9.291,25.769,25.769,0,0,1-16.2,5.738A25.887,25.887,0,0,1,0,94.963a36.267,36.267,0,0,0,20,6" transform="translate(0 -47.987)"/>
</svg>
